<?xml version="1.0" standalone="no"?>
<!DOCTYPE svg PUBLIC "-//W3C//DTD SVG 20010904//EN"
 "http://www.w3.org/TR/2001/REC-SVG-20010904/DTD/svg10.dtd">
<svg version="1.0" xmlns="http://www.w3.org/2000/svg"
 width="2072.000000pt" height="2072.000000pt" viewBox="0 0 2072.000000 2072.000000"
 preserveAspectRatio="xMidYMid meet">
<metadata>
Created by potrace 1.11, written by Peter Selinger 2001-2013
</metadata>
<g transform="translate(0.000000,2072.000000) scale(0.100000,-0.100000)"
fill="#000000" stroke="none">
<path d="M16606 13515 c-12 -6 -22 -16 -22 -23 -1 -7 -3 -14 -4 -17 -1 -3 -3
-8 -4 -12 0 -5 -7 -28 -15 -53 -7 -25 -15 -49 -16 -55 -3 -12 -1 -6 -37 -125
-16 -52 -31 -102 -33 -110 -1 -8 -24 -87 -50 -175 -25 -88 -64 -223 -86 -300
-22 -77 -43 -147 -46 -155 -8 -19 -11 -31 -16 -50 -2 -8 -11 -42 -21 -75 -10
-33 -19 -64 -20 -70 -2 -5 -8 -30 -15 -55 -7 -25 -13 -47 -13 -50 0 -3 -6 -21
-13 -40 -8 -19 -26 -80 -40 -135 -15 -55 -31 -109 -35 -120 -5 -11 -23 -72
-40 -135 -17 -63 -34 -122 -37 -130 -7 -16 -9 -25 -17 -55 -3 -11 -12 -45 -21
-75 -9 -30 -24 -82 -32 -115 -9 -33 -20 -62 -25 -63 -4 -2 -6 -7 -4 -11 3 -4
-7 -45 -20 -92 -14 -46 -26 -88 -27 -94 -2 -5 -6 -16 -10 -22 -5 -7 -5 -13 -1
-13 3 0 1 -7 -6 -15 -7 -8 -10 -15 -6 -15 3 0 1 -12 -5 -27 -6 -16 -12 -35
-14 -43 -2 -8 -11 -42 -21 -75 -10 -33 -18 -62 -19 -65 0 -3 -6 -23 -12 -45
-19 -61 -83 -278 -87 -295 -8 -32 -58 -206 -63 -220 -3 -8 -7 -20 -9 -27 -1
-7 -11 -43 -23 -80 -30 -100 -54 -186 -57 -200 -1 -7 -12 -43 -24 -80 -12 -38
-23 -72 -24 -78 -3 -10 -12 -42 -54 -184 -13 -47 -25 -89 -26 -95 -5 -22 -27
-102 -33 -116 -7 -16 -9 -25 -17 -55 -3 -11 -17 -60 -31 -110 -15 -49 -28 -97
-30 -105 -2 -8 -4 -16 -5 -17 -2 -2 -3 -6 -4 -10 -1 -5 -5 -14 -9 -20 -5 -7
-6 -13 -3 -13 3 0 1 -12 -5 -27 -6 -16 -17 -50 -24 -78 -7 -27 -34 -122 -60
-210 -26 -88 -48 -164 -49 -170 -1 -5 -5 -15 -8 -21 -4 -6 -9 -21 -11 -35 -3
-13 -17 -64 -32 -114 -14 -49 -28 -97 -30 -105 -2 -8 -11 -40 -20 -70 -9 -30
-18 -62 -20 -70 -2 -8 -4 -15 -5 -15 -1 0 -3 -7 -5 -15 -1 -8 -26 -94 -55
-190 -28 -96 -53 -182 -55 -190 -7 -28 -87 -305 -92 -320 -4 -8 -7 -20 -8 -27
-5 -21 -56 -198 -62 -213 -10 -24 -22 -65 -27 -91 -2 -8 -5 -21 -8 -29 -9 -27
-26 -84 -39 -130 -7 -25 -13 -47 -14 -50 -1 -3 -7 -25 -14 -50 -7 -25 -21 -73
-32 -106 -11 -34 -22 -75 -25 -90 -3 -16 -10 -34 -16 -41 -6 -7 -8 -13 -5 -13
3 0 -3 -27 -13 -60 -10 -33 -15 -61 -12 -63 4 -2 180 -3 392 -3 l385 1 13 40
c8 22 15 47 17 55 2 8 14 47 25 85 12 39 25 84 30 100 4 17 24 84 43 150 107
360 149 502 152 515 2 8 4 15 5 15 1 0 3 7 5 15 1 8 11 42 21 75 10 33 19 63
20 68 1 4 2 8 4 10 1 1 3 9 5 17 1 8 11 42 21 75 10 33 19 65 20 70 1 6 39
134 84 285 45 151 83 282 85 290 2 8 4 15 5 15 1 0 3 7 5 15 2 8 26 92 54 185
62 213 97 331 122 420 12 39 23 77 26 85 4 8 7 20 8 25 0 6 4 17 8 25 3 8 20
65 37 125 17 61 47 164 67 230 19 66 37 127 38 135 2 8 4 15 5 15 2 0 6 16 14
50 2 11 5 21 6 23 2 1 4 7 5 12 1 6 4 12 5 15 1 3 3 8 4 13 1 4 10 34 19 67
10 33 25 85 33 115 9 30 19 62 22 70 3 8 6 20 8 27 1 7 11 43 23 80 11 37 23
82 27 98 4 17 9 35 13 40 3 6 6 12 7 15 0 3 6 25 13 50 7 25 15 52 17 60 2 8
17 60 33 115 27 91 80 271 132 450 11 39 23 77 26 85 8 21 11 31 18 65 3 16
11 35 17 42 6 7 8 13 5 13 -4 0 0 18 8 40 8 22 12 40 8 40 -3 0 -1 6 5 13 6 6
10 17 10 22 0 9 18 72 30 105 3 8 6 20 7 25 2 6 15 51 30 100 15 50 31 104 35
120 5 17 20 73 35 125 14 52 29 102 32 110 7 17 6 12 23 70 7 25 14 50 15 55
2 6 19 67 40 135 20 69 46 157 57 195 11 39 31 105 44 147 13 42 25 85 27 95
2 10 17 59 32 108 16 50 29 98 28 108 0 9 4 17 10 17 6 0 8 3 5 6 -4 3 0 21 8
40 8 19 14 35 13 36 -2 4 21 90 28 108 6 14 9 24 16 53 2 6 10 32 17 57 8 25
14 48 16 53 1 4 2 8 4 10 1 1 3 9 5 17 2 8 13 49 25 90 12 41 24 84 27 95 2
11 8 29 13 40 7 17 13 37 26 90 1 6 3 16 5 24 3 8 -7 17 -23 22 -17 4 -28 3
-28 -2 0 -6 -5 -7 -10 -4 -10 6 -132 10 -155 5 -5 -1 -14 -1 -20 0 -19 5 -194
2 -203 -4 -4 -2 -14 -1 -22 4 -8 5 -21 5 -31 -1 -11 -6 -20 -5 -24 1 -4 7 -12
7 -24 0 -10 -5 -21 -7 -24 -4 -10 10 -42 12 -58 3 -9 -5 -19 -6 -23 -2 -10 10
-118 9 -140 -2z"/>
<path d="M10659 13338 c-47 -29 -94 -59 -104 -65 -11 -7 -38 -22 -60 -34 -22
-12 -42 -25 -45 -29 -7 -9 -430 -220 -438 -218 -4 1 -18 -3 -32 -9 -106 -45
-156 -63 -170 -63 -9 0 -20 -3 -24 -7 -4 -5 -11 -8 -14 -9 -4 0 -32 -7 -62
-16 -30 -10 -66 -19 -80 -22 -14 -3 -56 -12 -95 -20 -65 -14 -156 -24 -232
-25 -32 -1 -33 -2 -33 -43 1 -37 5 -46 34 -68 71 -52 162 -228 180 -345 3 -22
8 -51 11 -65 16 -74 18 -361 18 -1915 0 -1534 -2 -1809 -18 -1925 -13 -98 -65
-280 -85 -300 -3 -3 -14 -22 -25 -44 -11 -21 -43 -61 -70 -88 -45 -43 -50 -53
-47 -83 3 -24 9 -35 21 -36 9 0 395 -1 858 -2 l842 -2 -2 40 c-1 31 -8 45 -32
65 -85 70 -153 181 -170 280 -3 18 -8 37 -12 43 -3 5 -7 28 -9 50 -2 23 -7 56
-10 72 -9 47 -15 945 -6 945 7 0 32 -16 71 -45 33 -24 200 -194 226 -230 17
-22 35 -45 40 -51 6 -6 18 -22 28 -35 26 -35 115 -161 129 -183 7 -10 21 -29
31 -41 9 -13 17 -26 17 -30 0 -3 6 -13 13 -20 23 -27 34 -41 38 -51 10 -24
189 -273 264 -366 232 -289 445 -441 680 -485 50 -9 242 -8 314 1 176 23 368
120 483 244 70 75 149 208 162 273 2 8 6 21 9 29 6 17 13 49 24 106 9 51 9
228 0 279 -12 65 -50 185 -59 185 -4 0 -8 7 -8 16 0 22 -75 129 -124 176 -59
58 -112 92 -183 118 -77 28 -109 22 -118 -21 -9 -41 -77 -106 -125 -119 -75
-20 -159 -16 -235 13 -70 26 -278 164 -355 235 -14 13 -37 31 -52 40 -16 9
-28 20 -28 24 0 4 -7 8 -15 8 -8 0 -15 4 -15 8 0 5 -21 24 -47 43 -27 18 -56
41 -66 50 -16 15 -15 16 22 27 21 7 46 12 55 12 19 0 77 17 196 57 80 26 284
125 307 149 8 8 18 14 22 14 4 0 17 8 29 17 11 10 33 27 49 38 31 22 151 132
169 155 7 8 26 31 44 50 17 19 49 62 71 95 21 33 43 65 48 71 15 18 92 181 96
203 2 11 9 29 15 41 6 11 8 25 5 30 -3 6 -2 10 3 10 5 0 9 6 10 13 0 13 8 47
16 75 17 61 31 362 17 387 -3 5 -6 25 -8 45 -2 19 -8 48 -13 66 -6 17 -13 42
-15 55 -12 63 -99 235 -150 298 -140 168 -342 286 -560 327 -160 29 -386 26
-495 -7 -19 -6 -42 -11 -50 -12 -8 -2 -42 -13 -75 -27 -230 -93 -382 -275
-399 -480 -4 -47 -5 -47 79 -54 52 -5 79 -9 120 -20 53 -14 125 -41 125 -48 0
-4 5 -8 11 -8 15 0 86 -55 128 -99 41 -44 87 -138 100 -207 15 -75 6 -190 -19
-257 -12 -31 -26 -57 -31 -57 -5 0 -9 -7 -9 -16 0 -29 -113 -129 -186 -165
-38 -19 -71 -34 -74 -35 -3 0 -23 -5 -45 -12 -22 -6 -52 -14 -67 -17 -16 -3
-40 -8 -55 -11 -32 -7 -215 -7 -283 -1 -61 6 -186 34 -232 52 -21 8 -38 12
-38 10 0 -3 -8 -1 -19 4 -18 10 -18 53 -16 1531 2 836 2 1520 1 1520 -1 0 -40
-24 -87 -52z"/>
<path d="M8058 12909 c-62 -9 -155 -37 -193 -57 -16 -9 -33 -15 -37 -14 -5 1
-8 -2 -8 -8 0 -5 -5 -10 -10 -10 -35 0 -153 -135 -180 -205 -43 -112 -41 -245
6 -374 48 -133 169 -269 324 -366 25 -15 48 -33 52 -39 4 -6 8 -8 8 -3 0 4 18
-4 40 -18 22 -14 43 -25 46 -25 8 0 64 -60 65 -69 0 -3 2 -15 4 -26 7 -36 -6
-65 -34 -72 -37 -10 -57 -5 -131 29 -123 57 -326 130 -395 142 -11 1 -27 5
-35 8 -8 3 -44 11 -80 17 -36 6 -78 13 -95 17 -168 31 -490 36 -660 9 -16 -3
-48 -7 -70 -10 -22 -2 -56 -7 -75 -9 -38 -6 -256 -62 -280 -73 -8 -4 -19 -8
-25 -8 -5 -1 -23 -8 -40 -14 -16 -7 -34 -14 -40 -15 -34 -7 -315 -146 -335
-166 -3 -3 -37 -26 -76 -52 -101 -68 -136 -98 -261 -225 -154 -156 -292 -367
-358 -548 -10 -27 -22 -54 -25 -60 -6 -9 -12 -26 -26 -80 -1 -5 -10 -38 -19
-72 -20 -76 -25 -99 -31 -138 -2 -16 -6 -39 -9 -50 -25 -117 -26 -492 -1 -615
1 -8 7 -37 11 -65 10 -57 12 -64 14 -67 2 -2 5 -14 7 -28 27 -149 143 -407
253 -565 84 -120 235 -287 307 -339 16 -12 10 -17 -57 -51 -41 -20 -82 -44
-91 -52 -10 -9 -18 -13 -18 -9 0 4 -6 1 -14 -6 -7 -7 -23 -20 -36 -28 -60 -41
-158 -133 -214 -200 -31 -38 -101 -152 -124 -201 -21 -47 -61 -160 -67 -190
-7 -34 -17 -95 -21 -124 -6 -48 -6 -238 0 -275 3 -19 8 -51 11 -70 20 -141
105 -377 157 -434 10 -10 15 -23 12 -28 -3 -4 -1 -8 5 -8 5 0 12 -8 15 -17 3
-10 16 -29 28 -43 13 -14 39 -46 58 -70 31 -40 59 -67 154 -154 16 -15 46 -36
65 -48 20 -12 40 -28 44 -35 4 -7 12 -13 17 -13 5 0 33 -14 62 -31 29 -17 58
-32 63 -33 6 -1 35 -14 65 -28 60 -29 183 -69 270 -88 81 -17 845 -8 845 10 0
1 11 3 25 4 14 2 35 6 47 10 13 4 33 9 45 12 40 7 62 13 98 24 19 6 46 13 60
16 14 2 42 11 63 19 20 8 37 12 37 9 0 -4 7 -1 15 6 8 7 15 10 15 6 0 -3 12
-1 28 5 34 13 230 55 296 64 50 6 139 7 186 2 121 -14 235 -85 273 -169 l12
-28 140 0 c149 0 187 7 298 57 108 48 266 173 282 224 4 11 10 19 14 19 15 0
81 159 96 229 43 207 8 420 -95 579 -43 68 -79 110 -129 156 -19 17 -43 39
-53 49 -10 9 -21 17 -24 17 -3 0 -25 13 -49 30 -60 41 -177 93 -255 112 -140
35 -132 34 -233 41 -37 2 -71 7 -74 10 -3 4 -14 2 -24 -4 -11 -5 -19 -6 -19
-2 0 5 -15 7 -32 6 -73 -4 -166 -14 -218 -23 -30 -5 -73 -12 -95 -15 -22 -3
-56 -10 -75 -15 -19 -5 -48 -11 -65 -13 -39 -7 -193 -42 -270 -62 -33 -8 -71
-18 -85 -20 -49 -9 -72 -14 -88 -19 -9 -3 -28 -7 -42 -10 -14 -3 -61 -12 -105
-20 -44 -8 -96 -18 -115 -21 -19 -3 -48 -8 -65 -11 -74 -13 -130 -17 -270 -17
-82 -1 -167 2 -188 6 -95 17 -204 93 -243 168 -21 41 -25 63 -26 135 -1 124
73 224 197 262 28 9 149 8 205 -2 14 -2 43 -7 65 -11 22 -3 48 -9 58 -11 10
-3 35 -8 55 -10 20 -3 53 -9 72 -14 20 -5 54 -12 75 -14 22 -3 62 -7 89 -11
27 -3 87 -8 133 -10 46 -1 87 -5 89 -8 3 -3 18 -2 32 3 15 4 37 3 50 -1 12 -5
22 -5 22 -1 0 4 21 7 48 8 55 1 194 14 203 20 3 1 28 6 55 9 27 4 58 9 69 13
22 6 27 8 68 15 102 20 380 120 437 157 8 6 26 15 40 20 14 6 32 14 40 20 8 5
40 24 70 42 30 18 60 36 65 40 6 4 39 29 75 55 36 25 67 50 68 55 2 4 8 8 14
8 16 0 230 219 279 285 24 33 47 62 52 63 4 2 7 8 7 14 0 5 11 24 25 42 14 18
25 36 25 39 0 3 17 34 37 69 36 61 99 201 110 243 3 11 7 27 11 35 3 8 6 18 7
23 2 4 3 8 5 10 2 3 10 36 15 62 2 11 8 32 13 46 6 15 13 44 17 66 3 21 8 50
11 63 5 24 7 38 19 160 3 30 6 111 6 180 0 112 -2 147 -16 255 -6 55 -25 160
-35 200 -6 22 -13 49 -15 59 -9 39 -58 181 -65 191 -5 6 -9 15 -10 20 -7 32
-65 154 -106 220 -13 22 -30 50 -36 63 -6 12 -15 22 -20 22 -4 0 -8 6 -8 14 0
8 -3 16 -7 18 -5 2 -21 21 -38 43 -38 51 -61 78 -107 128 -21 22 -38 41 -38
41 0 1 29 32 64 69 215 227 323 549 292 870 -27 270 -192 516 -416 619 -72 33
-86 38 -120 43 -19 3 -44 8 -54 12 -29 8 -175 10 -228 2z m-823 -2089 c28 -6
61 -15 75 -20 14 -4 34 -11 45 -15 11 -3 20 -5 20 -4 0 5 122 -65 155 -89 51
-37 122 -110 159 -162 35 -49 87 -155 97 -198 4 -15 9 -31 13 -37 3 -5 6 -14
7 -20 1 -5 5 -24 8 -41 35 -186 22 -418 -31 -564 -38 -103 -117 -229 -178
-283 -22 -20 -84 -73 -100 -85 -29 -22 -158 -81 -215 -97 -159 -45 -363 -43
-520 6 -74 22 -181 74 -210 101 -10 10 -23 18 -29 18 -5 0 -38 31 -73 69 -68
73 -128 168 -154 241 -9 25 -20 54 -24 65 -5 11 -11 31 -13 45 -3 14 -8 36
-11 50 -4 14 -9 54 -12 90 -5 70 -6 75 -4 105 0 11 0 27 -1 35 -1 16 9 139 16
180 22 144 112 319 214 418 68 67 210 155 230 143 2 -2 7 1 10 6 8 12 118 42
179 50 26 3 49 7 51 9 9 9 248 -4 296 -16z"/>
<path d="M3336 12853 c-8 -8 -83 -51 -181 -104 -33 -17 -72 -40 -86 -50 -15
-10 -37 -23 -50 -29 -13 -5 -42 -21 -64 -35 -22 -14 -47 -28 -55 -32 -8 -4
-73 -40 -145 -81 -133 -76 -180 -102 -250 -142 -40 -22 -125 -70 -180 -102
-16 -9 -47 -25 -67 -34 -21 -9 -38 -21 -38 -26 0 -4 -6 -8 -14 -8 -7 0 -25 -9
-38 -20 -14 -10 -28 -16 -32 -13 -3 3 -6 1 -6 -5 0 -7 -4 -12 -9 -12 -5 0 -49
-23 -98 -51 -90 -53 -143 -83 -223 -126 -25 -14 -67 -38 -95 -54 -27 -16 -63
-36 -80 -44 -16 -9 -43 -24 -60 -34 -24 -15 -301 -171 -780 -441 -16 -9 -130
-74 -252 -143 -123 -70 -227 -127 -233 -127 -5 0 -10 -5 -10 -11 0 -5 -4 -7
-10 -4 -5 3 -10 1 -10 -4 0 -6 -7 -11 -15 -11 -8 0 -15 -3 -15 -7 0 -5 -20
-16 -45 -26 -25 -11 -45 -23 -45 -28 0 -5 -5 -9 -10 -9 -6 0 -40 -17 -76 -37
l-64 -37 2 -584 3 -584 50 -29 c28 -16 57 -32 65 -36 8 -4 36 -19 61 -34 26
-15 73 -42 105 -60 77 -42 116 -64 162 -91 74 -44 138 -78 169 -93 17 -8 37
-20 45 -27 7 -7 33 -23 58 -35 49 -24 122 -65 130 -73 3 -3 39 -23 80 -44 41
-22 77 -42 80 -45 3 -3 23 -15 45 -26 22 -11 42 -22 45 -25 3 -3 19 -12 35
-20 55 -28 150 -85 153 -92 2 -5 12 -8 22 -8 10 0 21 -4 24 -9 3 -5 28 -20 54
-34 26 -14 64 -34 83 -45 19 -11 63 -36 99 -57 36 -20 94 -53 130 -72 36 -20
72 -42 81 -49 9 -8 19 -11 22 -7 4 3 7 1 7 -5 0 -7 4 -12 9 -12 5 0 68 -34
140 -75 71 -41 133 -75 137 -75 4 0 15 -6 23 -14 9 -7 48 -30 86 -51 39 -20
79 -42 90 -48 75 -45 96 -58 145 -84 52 -28 399 -224 505 -285 28 -16 58 -32
68 -35 9 -3 17 -9 17 -14 0 -5 5 -9 11 -9 6 0 56 -26 112 -58 153 -88 197
-112 206 -112 4 0 8 296 8 659 l0 658 -166 84 c-91 46 -168 86 -171 89 -3 3
-52 29 -110 59 -58 29 -168 86 -245 126 -77 40 -214 111 -305 157 -91 47 -220
114 -288 149 -194 101 -369 191 -472 244 -52 26 -102 54 -110 61 -8 7 -19 13
-23 13 -15 0 -67 26 -67 34 0 5 -4 6 -9 3 -5 -3 -14 1 -21 9 -7 8 -21 15 -31
15 -10 0 -20 4 -23 9 -3 5 -46 28 -96 52 -49 24 -90 48 -90 52 0 4 15 15 32
23 18 8 83 41 143 72 61 32 196 102 300 156 105 54 196 103 203 108 6 6 12 7
12 2 0 -5 4 -4 8 1 4 6 68 41 142 79 74 37 139 72 145 77 5 5 17 9 26 9 10 0
19 3 21 8 2 4 46 29 98 56 52 27 154 79 225 116 72 37 195 101 275 141 80 41
148 78 151 82 3 5 12 9 20 11 8 1 30 11 49 21 19 10 54 28 77 40 23 12 49 28
58 35 8 7 15 10 15 7 0 -3 21 6 48 20 26 14 74 40 107 56 33 17 63 35 66 40 3
4 6 302 6 662 0 652 -1 677 -31 648z"/>
<path d="M17365 12201 l0 -660 70 -37 c138 -72 183 -94 193 -94 6 0 12 -3 14
-7 3 -8 25 -20 293 -156 88 -45 162 -84 165 -87 3 -3 55 -29 115 -59 61 -30
113 -60 117 -65 4 -6 8 -7 8 -2 0 5 6 4 13 -1 10 -9 193 -104 505 -264 51 -26
100 -53 108 -60 8 -6 14 -8 14 -4 0 4 6 3 13 -2 6 -6 89 -50 182 -98 311 -160
420 -217 423 -220 2 -1 -19 -13 -45 -26 -26 -12 -50 -26 -53 -29 -3 -4 -16
-11 -30 -15 -14 -4 -30 -11 -35 -16 -10 -7 -143 -77 -287 -150 -32 -16 -61
-29 -64 -28 -4 0 -10 -3 -13 -8 -3 -5 -37 -25 -76 -44 -38 -18 -73 -38 -76
-42 -3 -5 -9 -8 -13 -8 -3 1 -27 -10 -54 -23 -90 -46 -237 -123 -267 -139 -16
-9 -35 -17 -42 -17 -6 0 -13 -3 -15 -8 -1 -4 -79 -46 -173 -94 -93 -48 -217
-111 -275 -141 -58 -31 -161 -84 -230 -119 -69 -34 -126 -66 -128 -70 -2 -5
-12 -8 -22 -8 -10 0 -20 -3 -22 -7 -1 -5 -68 -41 -148 -82 -80 -41 -149 -78
-155 -83 -11 -10 -15 -1318 -5 -1318 9 0 108 52 155 81 22 13 58 33 80 44 22
11 42 23 45 26 3 4 38 24 78 45 40 22 80 44 90 49 31 19 273 156 320 182 26
15 65 37 87 50 22 13 56 31 75 41 19 9 37 20 38 25 2 4 8 7 12 7 8 0 96 48
155 85 11 7 23 12 26 11 4 -1 15 6 25 14 11 8 35 24 54 35 19 10 58 32 85 47
28 15 76 43 108 60 33 18 71 40 85 48 15 9 74 42 132 74 58 33 117 68 133 78
15 11 27 16 27 12 0 -4 8 -1 18 7 9 8 28 20 41 27 13 8 40 23 60 34 20 11 72
41 116 66 44 25 105 59 135 75 30 16 62 35 70 41 8 6 33 20 55 31 22 11 42 22
45 25 3 3 21 13 40 24 83 44 148 81 182 103 21 13 39 23 41 23 4 0 245 135
267 150 8 6 22 13 30 17 8 4 69 38 134 75 66 37 121 68 123 68 2 0 27 15 56
33 29 17 69 41 90 51 l37 19 0 588 0 588 -29 20 c-16 12 -32 21 -35 21 -3 0
-27 13 -53 29 -27 15 -192 109 -368 208 -176 100 -338 191 -360 204 -78 44
-141 79 -195 109 -107 59 -155 87 -190 108 -19 12 -42 25 -50 29 -8 3 -76 41
-150 83 -74 42 -155 88 -180 102 -25 14 -63 35 -85 48 -22 13 -65 36 -95 53
-30 17 -67 38 -82 49 -14 10 -29 18 -33 18 -4 0 -35 17 -69 37 -33 21 -63 38
-66 38 -5 1 -89 48 -130 74 -14 8 -28 14 -32 13 -5 -1 -8 3 -8 8 0 6 -4 10 -9
10 -5 0 -65 32 -133 71 -67 39 -157 89 -198 111 -41 23 -87 49 -102 59 -14 11
-29 19 -32 19 -3 0 -40 20 -82 45 -41 25 -77 45 -80 45 -2 0 -36 19 -76 43
-40 24 -88 50 -106 58 -17 7 -32 17 -32 21 0 5 -4 8 -9 8 -5 0 -63 31 -130 69
-66 38 -128 72 -138 75 -18 6 -18 -20 -18 -653z"/>
</g>
</svg>
